<svg
  fill="none"
  height="32"
  viewBox="0 0 32 32"
  width="32"
  xmlns="http://www.w3.org/2000/svg"
>
  <defs>
    <style>
      .eddy-favicon {
        fill: #58f609;
        fill: color(display-p3 0.345098 0.964706 0.035294);
      }

      @media (prefers-color-scheme: light) {
        .eddy-favicon {
          fill: #0a0;
          fill: color(display-p3 0 0.666667 0);
        }
      }
    </style>
  </defs>
  <path
    class="eddy-favicon"
    clip-rule="evenodd"
    d="M16 32C24.8366 32 32 24.8366 32 16C32 7.16344 24.8366 0 16 0C7.16344 0 0 7.16344 0 16C0 24.8366 7.16344 32 16 32ZM22.1362 14.9775V16.1709C22.1362 16.5395 21.9386 16.7941 21.5935 16.7862H12.151V17.1256C12.151 20.3956 13.6738 21.8993 16.2662 21.8993C17.8797 21.8806 19.4898 21.7486 21.085 21.5041H21.2272C21.2833 21.4966 21.3403 21.5011 21.3944 21.5175C21.4486 21.5339 21.4987 21.5617 21.5413 21.5991C21.5839 21.6365 21.6181 21.6826 21.6417 21.7344C21.6652 21.7861 21.6775 21.8424 21.6778 21.8993V22.8646C21.6778 23.2332 21.5645 23.4321 21.114 23.517C19.519 23.8465 17.8944 24.0083 16.2662 23.9997C13.0336 23.9997 9.67969 22.4403 9.67969 16.993V15.0066C9.67969 10.9782 11.9059 8 15.9369 8C20.0522 8 22.1362 10.9491 22.1362 14.9775ZM12.1589 14.8926H19.628L19.6254 14.7521C19.6254 11.7155 18.4161 10.1853 15.9369 10.1853C13.5131 10.1853 12.1589 11.8348 12.1589 14.7521V14.8926Z"
    fill-rule="evenodd"
  />
</svg>
