<!-- <?xml version="1.0" encoding="utf-8"?> -->
<svg xmlns="http://www.w3.org/2000/svg" xmlns:xlink="http://www.w3.org/1999/xlink" x="0px" y="0px" viewBox="0 0 16 16">
  <style>
    path:nth-of-type(1) {
      fill: rgb(30, 30, 30);
    }
    path:nth-of-type(2) {
      fill: rgb(0, 170, 0);
    }

    @supports (color: color(display-p3 1 1 1)) {
      path:nth-of-type(1) {
        fill: color(display-p3 0.117647 0.117647 0.117647);
      }
      path:nth-of-type(2) {
        fill: color(display-p3 0 0.666667 0);
      }
    }

    @media (prefers-color-scheme: dark) {
      path:nth-of-type(1) {
        fill: rgb(252, 252, 252);
      }
      path:nth-of-type(2) {
        fill: rgb(88, 246, 9);
      }

      @supports (color: color(display-p3 1 1 1)) {
        path:nth-of-type(1) {
          fill: color(display-p3 0.988235 0.988235 0.988235);
        }
        path:nth-of-type(2) {
          fill: color(display-p3 0.345098 0.964706 0.035294);
        }
      }
    }
  </style>
  <path
    d="M11.4,8.1V7.2c0-3-1.6-5.2-4.7-5.2C3.7,2,2,4.2,2,7.3v1.5C2,12.8,4.5,14,7,14c1.2,0,2.5-0.1,3.7-0.4c0.3-0.1,0.4-0.2,0.4-0.5v-0.7c0-0.4-0.4-0.3-0.4-0.3c-1.2,0.2-2.4,0.3-3.6,0.3c-2,0-3.1-1.1-3.1-3.6V8.6H11C11.2,8.6,11.4,8.4,11.4,8.1z M9.5,7.2H3.9V7c0-2.2,1-3.4,2.9-3.4S9.5,4.8,9.5,7V7.2z"
  />
  <path d="M12,12h2v2h-2V12z"/>
</svg>
